<?xml version="1.0" standalone="no"?>
<!DOCTYPE svg PUBLIC "-//W3C//DTD SVG 1.1//EN" "http://www.w3.org/Graphics/SVG/1.1/DTD/svg11.dtd" >
<svg xmlns="http://www.w3.org/2000/svg">
<metadata>
This is a custom SVG webfont generated by Font Squirrel.
Copyright   : Copyright c 2007 by Robby Woodard All rights reserved
Designer    : Robby Woodard
</metadata>
<defs>
<font id="webfonty8y7gFVf" horiz-adv-x="1185" >
<font-face units-per-em="2048" ascent="1536" descent="-512" />
<missing-glyph horiz-adv-x="448" />
<glyph unicode=" "  horiz-adv-x="448" />
<glyph unicode="&#x09;" horiz-adv-x="448" />
<glyph unicode="&#xa0;" horiz-adv-x="448" />
<glyph unicode="!" horiz-adv-x="606" d="M164 0v287h321v-287h-321zM164 410v901h321v-901h-321z" />
<glyph unicode="&#x22;" horiz-adv-x="919" d="M123 983v512h272v-512h-272zM526 983v512h273v-512h-273z" />
<glyph unicode="#" horiz-adv-x="1124" d="M82 492v184h162v123h-162v184h162v328h252v-328h133v328h252v-328h163v-184h-163v-123h163v-184h-163v-328h-252v328h-133v-328h-252v328h-162zM496 676h133v123h-133v-123z" />
<glyph unicode="$" horiz-adv-x="940" d="M82 901v246q0 70 47 117t117 47h94v184h272v-184h213v-185h-446v-204h317q68 0 115 -48q49 -49 49 -116v-266q0 -66 -49 -115t-115 -49h-84v-185h-272v185h-223v184h446v225h-317q-68 0 -117 49q-47 47 -47 115z" />
<glyph unicode="%" horiz-adv-x="2004" d="M82 901v246q0 70 47 117t117 47h452q66 0 115 -49.5t49 -114.5v-246q0 -68 -49 -117q-47 -47 -115 -47h-452q-68 0 -117 49q-47 47 -47 115zM379 922h186v204h-186v-204zM496 0l678 1311h337l-675 -1311h-340zM1145 164v246q0 70 49 116q51 47 115 47h452q68 0 117 -49 q47 -47 47 -114v-246q0 -70 -47 -117t-117 -47h-452q-68 0 -115 47q-49 49 -49 117zM1442 184h186v205h-186v-205z" />
<glyph unicode="&#x26;" horiz-adv-x="1431" d="M82 328v164q0 139 94 233t234 94h147v328q0 70 47 117t117 47h446q66 0 115 -49.5t49 -114.5v-348q0 -68 -49 -117q-47 -47 -115 -47h-313v-451h57q49 0 86 41t37 103v84h297v-84q0 -137 -94 -232q-96 -96 -233 -96h-150v-246h-297v246h-147q-137 0 -232 94 q-96 97 -96 234zM379 328q0 -59 37 -103q35 -41 86 -41h55v451h-55q-49 0 -86 -41t-37 -102v-164zM854 819h180v307h-180v-307z" />
<glyph unicode="'" horiz-adv-x="516" d="M123 983v512h272v-512h-272z" />
<glyph unicode="(" horiz-adv-x="694" d="M123 -82v1249q0 135 96 231.5t232 96.5h184v-184h-60q-55 0 -92 -37t-37 -94v-1274q0 -55 37 -92q39 -39 92 -39h60v-185h-184q-135 0 -231.5 96.5t-96.5 231.5z" />
<glyph unicode=")" horiz-adv-x="694" d="M61 -225h60q55 0 92 36.5t37 94.5v1274q0 57 -37 94t-92 37h-60v184h185q135 0 231 -96t96 -232v-1249q0 -135 -96 -231.5t-231 -96.5h-185v185z" />
<glyph unicode="*" horiz-adv-x="817" d="M68 1071l145 86l-145 82l100 172l145 -86v170h197v-170l143 86l101 -172l-146 -82l146 -86l-101 -172l-143 86v-168h-197v168l-145 -86z" />
<glyph unicode="+" horiz-adv-x="1062" d="M123 444v256h280v283h259v-283h280v-256h-280v-280h-259v280h-280z" />
<glyph unicode="," horiz-adv-x="591" d="M0 -410l219 697h305l-217 -697h-307z" />
<glyph unicode="-" horiz-adv-x="694" d="M102 471v205h492v-205h-492z" />
<glyph unicode="." horiz-adv-x="612" d="M143 0v287h328v-287h-328z" />
<glyph unicode="/" horiz-adv-x="1103" d="M45 0l678 1311h338l-676 -1311h-340z" />
<glyph unicode="0" d="M102 328v655q0 135 96.5 231.5t231.5 96.5h328q135 0 231 -96.5t96 -231.5v-655q0 -135 -96 -231.5t-231 -96.5h-328q-137 0 -231 94q-97 97 -97 234zM424 334q0 -61 39 -107q37 -43 90 -43h82q55 0 92 43q39 45 39 107v641q0 66 -39 106q-41 45 -92 45h-82 q-51 0 -90 -45t-39 -106v-641z" />
<glyph unicode="1" horiz-adv-x="653" d="M47 1126v185h485v-1311h-321v1126h-164z" />
<glyph unicode="2" horiz-adv-x="1124" d="M123 0v438q0 137 94 232q96 96 234 96h102q55 0 92 43q39 45 39 106v60q0 66 -39 106q-41 45 -92 45h-391v185h514q137 0 233 -97q94 -94 95 -231v-78q0 -137 -95 -231q-96 -96 -233 -96h-103q-57 0 -94 -41q-37 -40 -37 -105v-246h521v-186h-840z" />
<glyph unicode="3" horiz-adv-x="1042" d="M102 0v184h390q55 0 92 43t37 109v151q0 63 -37 107q-39 45 -92 45h-390v180h424v307h-424v185h562q70 0 116 -49q47 -51 47 -115v-420q115 -102 115 -248v-151q0 -135 -96 -231.5t-232 -96.5h-512z" />
<glyph unicode="4" horiz-adv-x="1247" d="M0 307l520 1004h344l-424 -819h283v327h321v-327h164v-185h-164v-307h-321v307h-723z" />
<glyph unicode="5" horiz-adv-x="1062" d="M102 0v184h410q55 0 92 43q39 45 39 107v149q0 66 -39 107q-41 45 -92 45h-410v676h809v-185h-489v-307h213q137 0 233 -96q94 -94 95 -231v-164q0 -137 -95 -232q-96 -96 -233 -96h-533z" />
<glyph unicode="6" d="M102 328v655q0 135 96.5 231.5t231.5 96.5h582v-185h-459q-51 0 -90 -45t-39 -106v-158h334q135 0 231 -96t96 -232v-161q0 -135 -96 -231.5t-231 -96.5h-328q-137 0 -231 94q-97 97 -97 234zM424 334q0 -61 39 -107q37 -43 90 -43h82q55 0 92 43q39 45 39 107v147 q0 66 -39 107q-41 45 -92 45h-211v-299z" />
<glyph unicode="7" d="M82 1126v185h1106l-676 -1311h-344l580 1126h-666z" />
<glyph unicode="8" d="M102 328v164q0 119 74 206v449q0 70 47 117t117 47h508q68 0 117 -49q47 -47 47 -115v-449q74 -96 73 -206v-164q0 -135 -96 -231.5t-231 -96.5h-328q-135 0 -231.5 96.5t-96.5 231.5zM424 336q0 -61 39 -106.5t90 -45.5h82q51 0 90 45t39 107v153q0 61 -39 106.5 t-90 45.5h-82q-53 0 -90 -43q-39 -45 -39 -109v-153zM477 819h234v307h-234v-307z" />
<glyph unicode="9" d="M102 821v162q0 139 94.5 233.5t233.5 94.5h328q137 0 231 -94q96 -96 96 -234v-655q0 -135 -96 -231.5t-231 -96.5h-582v184h459q53 0 90 43q39 45 39 109v158h-334q-137 0 -233 96q-95 94 -95 231zM422 829q0 -66 39 -106q41 -45 92 -45h211v299q0 61 -39 106 q-37 43 -90 43h-82q-55 0 -92 -43q-39 -45 -39 -106v-148z" />
<glyph unicode=":" horiz-adv-x="653" d="M164 123v287h328v-287h-328zM164 616v287h328v-287h-328z" />
<glyph unicode=";" horiz-adv-x="653" d="M-43 -246l209 656h326l-207 -656h-328zM164 616v287h328v-287h-328z" />
<glyph unicode="&#x3c;" horiz-adv-x="940" d="M0 653l666 666l174 -182l-475 -484l475 -481l-174 -184z" />
<glyph unicode="=" horiz-adv-x="1062" d="M123 256v256h819v-256h-819zM123 647v256h819v-256h-819z" />
<glyph unicode="&#x3e;" horiz-adv-x="940" d="M102 172l476 481l-476 484l174 182l666 -666l-666 -665z" />
<glyph unicode="?" horiz-adv-x="919" d="M123 1126v185h553q68 0 117 -49q47 -47 47 -115v-350q0 -68 -49 -115q-51 -47 -115 -47h-144v-227h-327v247q0 63 47 115q47 49 115 49h145v307h-389zM205 0v287h327v-287h-327z" />
<glyph unicode="@" horiz-adv-x="1841" d="M123 328v327q0 205 143.5 348.5t347.5 143.5h779q135 0 231 -96.5t96 -231.5v-491q0 -66 -49 -115t-115 -49h-819q-68 0 -116 49q-47 47 -48 115v327q0 68 48 115q49 49 116 49h533v-471h164v471q0 72 -48 117q-51 47 -116 47h-533q-137 0 -231 -94q-96 -96 -96 -234 v-325q0 -137 96 -233.5t231 -96.5h981v-164h-1104q-205 0 -348 143.5t-143 348.5zM819 348h185v287h-185v-287z" />
<glyph unicode="A" d="M123 0v983q0 137 96 234q94 94 232 94h286q137 0 232 -94q96 -96 96 -234v-983h-322v471h-299v-471h-321zM444 655h299v320q0 61 -38.5 106t-90.5 45h-41q-53 0 -92 -45q-37 -43 -37 -106v-320z" />
<glyph unicode="B" d="M123 0v1311h704q66 0 115 -49.5t49 -114.5v-430q115 -102 115 -248v-141q0 -135 -96.5 -231.5t-231.5 -96.5h-655zM444 184h211q51 0 90 45t39 107v141q0 63 -36 107q-39 45 -93 45h-211v-445zM444 809h246v317h-246v-317z" />
<glyph unicode="C" horiz-adv-x="1144" d="M102 492v491q0 137 97 234q94 94 231 94h377q98 0 167.5 -70t69.5 -168v-172h-321v225h-170q-51 0 -90 -45t-39 -106v-483q0 -127 86 -217.5t207 -90.5h327v-184h-450q-203 0 -348 145q-144 144 -144 347z" />
<glyph unicode="D" horiz-adv-x="1206" d="M123 0v1311h491q203 0 347 -144q145 -145 145 -348v-327q0 -203 -145 -349q-143 -143 -347 -143h-491zM444 184h48q121 0 206.5 90.5t85.5 217.5v327q0 127 -86 217t-206 90h-48v-942z" />
<glyph unicode="E" horiz-adv-x="1001" d="M123 164v1147h778v-185h-457v-348h457v-184h-457v-410h457v-184h-614q-70 0 -117 47t-47 117z" />
<glyph unicode="F" horiz-adv-x="980" d="M123 0v1311h774v-185h-453v-348h457v-184h-457v-594h-321z" />
<glyph unicode="G" horiz-adv-x="1165" d="M102 328v491q0 205 143.5 348.5t348.5 143.5h450v-185h-327q-121 0 -207 -90t-86 -217v-483q0 -61 39 -106.5t90 -45.5h170v471h321v-655h-614q-137 0 -231 94q-97 97 -97 234z" />
<glyph unicode="H" d="M123 0v1311h321v-533h299v533h322v-1311h-322v594h-299v-594h-321z" />
<glyph unicode="I" horiz-adv-x="565" d="M123 0v1311h321v-1311h-321z" />
<glyph unicode="J" horiz-adv-x="735" d="M61 0v184h101q55 0 92 37t37 94v996h323v-983q0 -135 -96 -231.5t-231 -96.5h-226z" />
<glyph unicode="K" horiz-adv-x="1226" d="M123 0v1311h321v-533h103l280 533h340l-288 -545q98 -31 163 -117q63 -84 64 -194v-455h-322v440q0 63 -36 107q-39 45 -93 45h-211v-592h-321z" />
<glyph unicode="L" horiz-adv-x="837" d="M123 0v1311h321v-1127h355v-184h-676z" />
<glyph unicode="M" horiz-adv-x="1800" d="M123 0v1311h1229q135 0 231 -96.5t96 -231.5v-983h-321v995q0 63 -37 107q-39 45 -92 45h-168v-1147h-322v1147h-295v-1147h-321z" />
<glyph unicode="N" horiz-adv-x="1308" d="M123 0v1311h235q98 0 142 -78l366 -731v809h322v-1311h-236q-100 0 -141 78l-367 737v-815h-321z" />
<glyph unicode="O" horiz-adv-x="1206" d="M102 328v655q0 135 96.5 231.5t231.5 96.5h348q135 0 231.5 -96.5t96.5 -231.5v-655q0 -135 -96.5 -231.5t-231.5 -96.5h-348q-137 0 -231 94q-97 97 -97 234zM424 334q0 -61 39 -107q37 -43 90 -43h102q55 0 93 43q39 45 38 107v641q0 66 -38 106q-41 45 -93 45h-102 q-51 0 -90 -45t-39 -106v-641z" />
<glyph unicode="P" horiz-adv-x="1083" d="M123 0v1311h573q137 0 232 -94q96 -96 96 -234v-184q0 -137 -94 -232q-96 -96 -234 -96h-254v-471h-319zM442 655h131q51 0 93 45q39 41 39 107v170q0 63 -37 106t-95 43h-131v-471z" />
<glyph unicode="Q" d="M102 328v655q0 135 96.5 231.5t231.5 96.5h328q135 0 231 -96.5t96 -231.5v-655q0 -135 -96 -231.5t-231 -96.5h-6v-410h-316v410h-6q-137 0 -231 94q-97 97 -97 234zM424 334q0 -61 39 -107q37 -43 90 -43h82q55 0 92 43q39 45 39 107v641q0 66 -39 106q-41 45 -92 45 h-82q-51 0 -90 -45t-39 -106v-641z" />
<glyph unicode="R" d="M123 0v1311h704q66 0 115 -49.5t49 -114.5v-461q115 -102 115 -248v-438h-322v442q0 63 -36 107q-39 45 -93 45h-211v-594h-321zM444 778h246v348h-246v-348z" />
<glyph unicode="S" horiz-adv-x="1083" d="M102 813v260q0 98 70 168t168 70h602v-185h-520v-360h323q98 0 168 -67.5t70 -168.5v-292q0 -98 -69.5 -168t-168.5 -70h-602v186h519v389h-322q-98 0 -168 70t-70 168z" />
<glyph unicode="T" horiz-adv-x="1024" d="M61 1126v185h902v-185h-289v-1126h-322v1126h-291z" />
<glyph unicode="U" d="M123 328v983h321v-977q0 -63 37 -106.5t92 -43.5h41q53 0 91 43q39 45 38 107v977h322v-983q0 -135 -96.5 -231.5t-231.5 -96.5h-286q-137 0 -232 94q-96 97 -96 234z" />
<glyph unicode="V" d="M123 0v1311h321v-1127q123 0 211 88t88 220v819h322v-819q0 -203 -145 -349q-143 -143 -347 -143h-450z" />
<glyph unicode="W" horiz-adv-x="1800" d="M123 328v983h321v-996q0 -63 37 -106q39 -45 92 -45h166v1147h322v-1147h168q53 0 92 45q37 43 37 106v996h321v-983q0 -135 -96 -231.5t-231 -96.5h-901q-135 0 -231.5 96.5t-96.5 231.5z" />
<glyph unicode="X" d="M123 0v428q0 88 49 158q47 68 131 100q-84 33 -131 100q-49 70 -49 158v367h321v-451q0 -37 25 -59q27 -23 57 -23h136q37 0 59 22.5t22 59.5v451h322v-367q0 -88 -49 -158q-47 -68 -131 -100q84 -33 131 -100q49 -70 49 -158v-428h-322v512q0 37 -24 59q-27 23 -57 23 h-136q-33 0 -59 -23q-23 -20 -23 -59v-512h-321z" />
<glyph unicode="Y" horiz-adv-x="1124" d="M82 840v471h321v-465q0 -63 37 -106.5t92 -43.5h62q53 0 90 43q39 45 39 107v465h321v-471q0 -133 -94 -228q-98 -98 -227 -100v-512h-322v512q-133 4 -227 100q-92 96 -92 228z" />
<glyph unicode="Z" d="M41 0l639 1126h-530v185h997l-641 -1127h532v-184h-997z" />
<glyph unicode="[" horiz-adv-x="735" d="M123 -412v1907h532v-184h-211v-1538h211v-185h-532z" />
<glyph unicode="\" horiz-adv-x="1103" d="M45 1311h338l678 -1311h-340z" />
<glyph unicode="]" horiz-adv-x="735" d="M82 -225h211v1536h-211v184h532v-1905h-532v185z" />
<glyph unicode="^" horiz-adv-x="960" d="M41 819l321 492h236l324 -492h-322l-119 182l-119 -182h-321z" />
<glyph unicode="_" horiz-adv-x="1103" d="M-20 -164h1146v-184h-1146v184z" />
<glyph unicode="`" horiz-adv-x="817" d="M143 1495h201l219 -348h-201z" />
<glyph unicode="a" horiz-adv-x="1083" d="M102 164v266q0 70 47.5 117t116.5 47h400v205h-519v184h652q70 0 117 -47t47 -117v-819h-697q-70 0 -117 47t-47 117zM399 184h267v226h-267v-226z" />
<glyph unicode="b" horiz-adv-x="1103" d="M123 0v1495h297v-512h256q139 0 233.5 -94t94.5 -234v-327q0 -137 -95 -232q-96 -96 -233 -96h-553zM420 184h164q53 0 88 41t35 103v327q0 61 -35 102.5t-88 41.5h-164v-615z" />
<glyph unicode="c" horiz-adv-x="1024" d="M102 328v327q0 137 95 232q96 96 233 96h328q70 0 117 -47t47 -117v-164h-297v144h-103q-51 0 -88 -41q-35 -37 -35 -103v-327q0 -61 35 -102.5t88 -41.5h387v-184h-479q-139 0 -233.5 94.5t-94.5 233.5z" />
<glyph unicode="d" horiz-adv-x="1103" d="M102 328v327q0 137 95 232q96 96 233 96h256v512h297v-1495h-553q-139 0 -233.5 94.5t-94.5 233.5zM399 328q0 -61 35 -102.5t88 -41.5h164v615h-164q-51 0 -88 -41q-35 -37 -35 -103v-327z" />
<glyph unicode="e" horiz-adv-x="1103" d="M102 328v327q0 137 95 232q96 96 233 96h246q139 0 233.5 -94t94.5 -234v-245h-605v-82q0 -61 35 -102.5t88 -41.5h428v-184h-520q-139 0 -233.5 94.5t-94.5 233.5zM399 594h308v61q0 61 -35 102.5t-88 41.5h-62q-51 0 -88 -41q-35 -37 -35 -103v-61z" />
<glyph unicode="f" horiz-adv-x="817" d="M41 799v184h164v348q0 68 49 117q47 47 115 47h409v-184h-276v-328h276v-184h-276v-799h-297v799h-164z" />
<glyph unicode="g" horiz-adv-x="1103" d="M102 328v327q0 137 95 232q96 96 233 96h553v-1229q0 -70 -47 -117t-117 -47h-596v185h463v225h-256q-139 0 -233.5 94.5t-94.5 233.5zM399 328q0 -61 35 -102.5t88 -41.5h164v615h-164q-51 0 -88 -41q-35 -37 -35 -103v-327z" />
<glyph unicode="h" horiz-adv-x="1124" d="M123 0v1495h297v-512h256q139 0 233.5 -94t94.5 -234v-655h-297v655q0 61 -35 102.5t-88 41.5h-164v-799h-297z" />
<glyph unicode="i" horiz-adv-x="540" d="M123 0v983h297v-983h-297zM123 1229v266h297v-266h-297z" />
<glyph unicode="j" horiz-adv-x="540" d="M0 -225h123v1208h297v-1229q0 -70 -47 -117t-117 -47h-256v185zM123 1229v266h297v-266h-297z" />
<glyph unicode="k" horiz-adv-x="1165" d="M123 0v1495h299v-901h100l244 389h340l-258 -410q94 -37 153.5 -120.5t59.5 -186.5v-266h-297v266q0 59 -37 103q-35 41 -86 41h-219v-410h-299z" />
<glyph unicode="l" horiz-adv-x="540" d="M123 0v1495h297v-1495h-297z" />
<glyph unicode="m" horiz-adv-x="1667" d="M123 0v983h1096q137 0 231 -94q96 -96 96 -234v-655h-297v655q0 61 -34.5 102.5t-88.5 41.5h-143v-799h-297v799h-266v-799h-297z" />
<glyph unicode="n" horiz-adv-x="1124" d="M123 0v983h553q139 0 233.5 -94t94.5 -234v-655h-297v655q0 61 -35 102.5t-88 41.5h-164v-799h-297z" />
<glyph unicode="o" horiz-adv-x="1103" d="M102 328v327q0 137 95 232q96 96 233 96h246q139 0 233.5 -94t94.5 -234v-327q0 -137 -95 -232q-96 -96 -233 -96h-246q-139 0 -233.5 94.5t-94.5 233.5zM399 328q0 -61 35 -102.5t88 -41.5h62q53 0 88 41t35 103v327q0 61 -35 102.5t-88 41.5h-62q-51 0 -88 -41 q-35 -37 -35 -103v-327z" />
<glyph unicode="p" horiz-adv-x="1103" d="M123 -410v1393h553q139 0 233.5 -94t94.5 -234v-327q0 -137 -95 -232q-96 -96 -233 -96h-256v-410h-297zM420 184h164q53 0 88 41t35 103v327q0 61 -35 102.5t-88 41.5h-164v-615z" />
<glyph unicode="q" horiz-adv-x="1103" d="M102 328v327q0 137 95 232q96 96 233 96h225q137 0 232 -94q96 -96 96 -234v-1065h-297v410h-256q-139 0 -233.5 94.5t-94.5 233.5zM399 328q0 -61 35 -102.5t88 -41.5h164v471q0 59 -37 103q-35 41 -86 41h-41q-51 0 -88 -41q-35 -37 -35 -103v-327z" />
<glyph unicode="r" horiz-adv-x="980" d="M123 0v983h635q70 0 117 -47t47 -117v-246h-297v226h-205v-799h-297z" />
<glyph unicode="s" horiz-adv-x="980" d="M102 573v246q0 70 47.5 117t116.5 47h580v-184h-447v-205h318q70 0 117 -47t47 -117v-266q0 -68 -50 -117q-47 -47 -114 -47h-580v184h447v226h-318q-68 0 -116 49q-48 46 -48 114z" />
<glyph unicode="t" horiz-adv-x="837" d="M61 799v184h164v328h297v-328h256v-184h-256v-615h256v-184h-389q-70 0 -117 47t-47 117v635h-164z" />
<glyph unicode="u" horiz-adv-x="1083" d="M102 328v655h297v-655q0 -61 35 -102.5t88 -41.5h41q49 0 86 41t37 103v655h297v-655q0 -137 -94 -232q-96 -96 -234 -96h-225q-139 0 -233.5 94.5t-94.5 233.5z" />
<glyph unicode="v" horiz-adv-x="1124" d="M123 0v983h297v-799h164q51 0 88 41q35 37 35 103v655h297v-655q0 -137 -95 -232q-96 -96 -233 -96h-553z" />
<glyph unicode="w" horiz-adv-x="1667" d="M123 328v655h297v-655q0 -59 37 -103q35 -41 86 -41h143v799h297v-799h143q49 0 86 41t37 103v655h297v-655q0 -135 -96 -231.5t-231 -96.5h-768q-137 0 -232 94q-96 97 -96 234z" />
<glyph unicode="x" horiz-adv-x="1124" d="M123 0v260q0 88 47 150q51 68 125 94q-74 27 -125 96q-47 66 -47 150v233h297v-309q0 -39 24 -60q27 -23 58 -22h123q33 0 59 22q23 20 23 60v309h297v-233q0 -86 -48 -152q-49 -68 -125 -94q74 -27 125 -94q47 -61 48 -150v-260h-297v328q0 37 -25 59q-27 23 -57 23 h-123q-31 0 -58 -23q-25 -23 -24 -59v-328h-297z" />
<glyph unicode="y" horiz-adv-x="1124" d="M123 328v655h297v-655q0 -59 37 -103q35 -41 86 -41h164v799h297v-1229q0 -70 -47.5 -117t-116.5 -47h-256v185h123v225h-256q-137 0 -232 94q-96 97 -96 234z" />
<glyph unicode="z" horiz-adv-x="1165" d="M55 0l572 799h-504v184h983l-565 -799h506v-184h-992z" />
<glyph unicode="{" horiz-adv-x="653" d="M0 553l121 121v493q0 135 96 231.5t232 96.5h124v-184q-55 0 -92 -37t-37 -94v-455l-174 -172l174 -174v-473q0 -55 37 -92q39 -39 92 -39v-185h-124q-135 0 -231.5 96.5t-96.5 231.5v514z" />
<glyph unicode="|" horiz-adv-x="694" d="M205 -410v1905h287v-1905h-287z" />
<glyph unicode="}" horiz-adv-x="653" d="M82 -225q53 0 90 37q39 39 39 94v473l174 174l-174 172v455q0 55 -39 94q-37 37 -90 37v184h125q135 0 231.5 -96t96.5 -232v-493l120 -121l-120 -121v-514q0 -135 -96.5 -231.5t-231.5 -96.5h-125v185z" />
<glyph unicode="~" horiz-adv-x="1024" d="M102 471v184h318v21q0 68 49 117q47 47 115 47h338v-185h-318v-20q0 -68 -49 -117q-47 -47 -115 -47h-338z" />
<glyph unicode="&#xa1;" horiz-adv-x="606" d="M123 -328v901h321v-901h-321zM123 696v287h321v-287h-321z" />
<glyph unicode="&#xa2;" horiz-adv-x="899" d="M82 492v163q0 125 84 219q82 90 209 107v166h272v-164h172v-184h-317q-49 0 -86 -41t-37 -103v-163q0 -59 37 -103q35 -41 86 -41h317v-184h-172v-164h-272v164q-127 16 -209 106q-84 95 -84 222z" />
<glyph unicode="&#xa3;" horiz-adv-x="980" d="M82 328v184h41q51 0 88 41q35 37 35 102v72h-164v184h164v72q0 137 96 234q94 94 231 94h248v-185h-155q-49 0 -86 -41t-37 -102v-72h276v-184h-276v-72q0 -78 -33 -143h391v-184h-819z" />
<glyph unicode="&#xa4;" horiz-adv-x="1124" d="M82 356l168 168v303l-168 168l158 156l166 -168h317l164 168l157 -156l-170 -168v-301l170 -170l-157 -153l-166 168h-315l-166 -168zM461 578h205v198h-205v-198z" />
<glyph unicode="&#xa5;" horiz-adv-x="1198" d="M41 1311h328l231 -400l231 400h328l-305 -492h166v-184h-270v-123h270v-184h-270v-328h-297v328h-273v184h273v123h-273v184h168z" />
<glyph unicode="&#xa6;" horiz-adv-x="530" d="M123 328h287v-738h-287v738zM123 573v738h287v-738h-287z" />
<glyph unicode="&#xa7;" horiz-adv-x="1024" d="M123 0h481v328h-317q-68 0 -117 49q-47 47 -47 115v839q0 70 47 117t117 47h614v-184h-481v-328h317q70 0 117 -47t47 -117v-839q0 -68 -47 -115q-49 -49 -117 -49h-614v184zM420 492h184v327h-184v-327z" />
<glyph unicode="&#xa8;" horiz-adv-x="817" d="M164 1141v170h170v-170h-170zM485 1141v170h170v-170h-170z" />
<glyph unicode="&#xa9;" horiz-adv-x="1513" d="M123 492v327q0 205 143.5 348.5t347.5 143.5h287q205 0 348.5 -143.5t143.5 -348.5v-327q0 -203 -144 -347q-145 -145 -348 -145h-287q-203 0 -348 145q-143 144 -143 347zM326 485q0 -119 88 -200q86 -80 211 -80h266q125 0 211 80t86 200v340q0 119 -86 199t-211 80 h-266q-125 0 -211 -80q-88 -82 -88 -199v-340zM471 492v327q0 66 47 117q45 47 117 47h389v-178h-301v-299h301v-178h-389q-68 0 -117 49q-47 47 -47 115z" />
<glyph unicode="&#xaa;" horiz-adv-x="755" d="M61 932v182q0 49 33 82q35 35 82 35h309v123h-391v141h490q47 0 79.5 -32.5t32.5 -80.5v-563h-520q-49 0 -82 33t-33 80zM274 961h211v129h-211v-129z" />
<glyph unicode="&#xab;" horiz-adv-x="1374" d="M0 586l496 495l170 -182l-306 -313l308 -310l-174 -184zM625 586l495 495l174 -182l-305 -313l303 -310l-174 -184z" />
<glyph unicode="&#xac;" horiz-adv-x="1062" d="M123 399v256h819v-409h-256v153h-563z" />
<glyph unicode="&#xad;" horiz-adv-x="694" d="M102 471v205h492v-205h-492z" />
<glyph unicode="&#xae;" horiz-adv-x="1124" d="M115 1090q0 186 131 317t317 131q188 0 319.5 -131t131.5 -317q0 -188 -131 -319.5t-320 -131.5q-186 0 -317 131.5t-131 319.5zM322 825h149v174h215v-174h152v181q0 37 -27 69q-20 27 -61 37v145q0 45 -31 76q-33 33 -78 33h-319v-541zM471 1114v137h125v-137h-125z " />
<glyph unicode="&#xaf;" horiz-adv-x="817" d="M164 1141v170h491v-170h-491z" />
<glyph unicode="&#xb0;" horiz-adv-x="694" d="M61 901v246q0 70 47.5 117t116.5 47h246q71 0 117 -49q47 -51 47 -115v-246q0 -66 -47 -117q-45 -47 -117 -47h-246q-68 0 -116 49q-48 47 -48 115zM254 930h188v188h-188v-188z" />
<glyph unicode="&#xb1;" horiz-adv-x="1062" d="M123 0v256h819v-256h-819zM123 608v256h280v283h259v-283h280v-256h-280v-280h-259v280h-280z" />
<glyph unicode="&#xb2;" horiz-adv-x="919" d="M82 492v331q0 68 47 115q49 49 117 49h305v158h-451v166h576q68 0 117 -49q47 -47 47 -115v-162q0 -68 -49 -117q-47 -47 -115 -47h-305v-164h438v-165h-727z" />
<glyph unicode="&#xb3;" horiz-adv-x="919" d="M82 492v165h469v164h-469v166h381v158h-381v166h670v-344q88 -45 88 -144v-168q0 -70 -49 -116q-51 -47 -115 -47h-594z" />
<glyph unicode="&#xb4;" horiz-adv-x="817" d="M256 1147l219 348h201l-219 -348h-201z" />
<glyph unicode="&#xb5;" horiz-adv-x="1165" d="M102 -410v1393h297v-655q0 -61 35 -102.5t88 -41.5h41q49 0 86 41t37 103v655h297v-655q0 -59 37 -103q35 -41 86 -41v-184h-33q-121 0 -221 76q-88 -76 -211 -76h-115q-68 0 -127 25v-435h-297z" />
<glyph unicode="&#x3bc;" horiz-adv-x="1165" d="M102 -410v1393h297v-655q0 -61 35 -102.5t88 -41.5h41q49 0 86 41t37 103v655h297v-655q0 -59 37 -103q35 -41 86 -41v-184h-33q-121 0 -221 76q-88 -76 -211 -76h-115q-68 0 -127 25v-435h-297z" />
<glyph unicode="&#xb6;" horiz-adv-x="1042" d="M82 985v164q0 70 47 117t117 47h676v-983h-213v819h-148v-819h-213v491h-102q-68 0 -117 49q-47 47 -47 115z" />
<glyph unicode="&#xb7;" horiz-adv-x="653" d="M164 471v287h328v-287h-328z" />
<glyph unicode="&#xb8;" horiz-adv-x="817" d="M205 -240h157v260h170v-266q0 -68 -49 -116q-47 -47 -114 -48h-164v170z" />
<glyph unicode="&#xb9;" horiz-adv-x="550" d="M6 1145v166h465v-819h-291v653h-174z" />
<glyph unicode="&#xba;" horiz-adv-x="776" d="M82 1044v226q0 94 65.5 159.5t159.5 65.5h164q94 0 159.5 -65.5t65.5 -159.5v-226q0 -94 -65.5 -159.5t-159.5 -65.5h-164q-94 0 -159.5 65.5t-65.5 159.5zM293 1059q0 -43 24 -70q25 -29 62 -28h20q37 0 62 28q25 27 24 70v196q0 39 -26 70q-25 29 -60 29h-20 q-35 0 -60 -29q-27 -31 -26 -70v-196z" />
<glyph unicode="&#xbb;" horiz-adv-x="1374" d="M82 899l174 182l496 -495l-494 -494l-174 184l303 310zM709 276l307 310l-305 313l170 182l495 -495l-493 -494z" />
<glyph unicode="&#xbc;" horiz-adv-x="1923" d="M0 1145v166h465v-819h-291v653h-174zM301 0l678 1311h338l-676 -1311h-340zM901 150l344 669h295l-258 -504h162v217h289v-217h151v-165h-151v-150h-289v150h-543z" />
<glyph unicode="&#xbd;" horiz-adv-x="1964" d="M0 1145v166h465v-819h-291v653h-174zM301 0l678 1311h338l-676 -1311h-340zM1126 0v332q0 70 47.5 117t116.5 47h305v157h-450v166h575q66 0 115 -49t49 -115v-161q0 -66 -49 -115t-115 -49h-305v-164h438v-166h-727z" />
<glyph unicode="&#xbe;" horiz-adv-x="2209" d="M82 492v165h469v164h-469v166h381v158h-381v166h670v-344q88 -45 88 -144v-168q0 -70 -49 -116q-51 -47 -115 -47h-594zM588 0l678 1311h338l-676 -1311h-340zM1188 150l344 669h295l-258 -504h162v217h288v-217h152v-165h-152v-150h-288v150h-543z" />
<glyph unicode="&#xbf;" horiz-adv-x="919" d="M82 -164v350q0 70 47 115q51 47 117 47h143v227h328v-247q0 -63 -47 -115q-47 -49 -115 -49h-145v-307h389v-185h-553q-68 0 -117 49q-47 47 -47 115zM389 696v287h328v-287h-328z" />
<glyph unicode="&#xc0;" d="M123 0v983q0 137 96 234q94 94 232 94h286q137 0 232 -94q96 -96 96 -234v-983h-322v471h-299v-471h-321zM299 1802h201l219 -348h-201zM444 655h299v320q0 61 -38.5 106t-90.5 45h-41q-53 0 -92 -45q-37 -43 -37 -106v-320z" />
<glyph unicode="&#xc1;" d="M123 0v983q0 137 96 234q94 94 232 94h286q137 0 232 -94q96 -96 96 -234v-983h-322v471h-299v-471h-321zM444 655h299v320q0 61 -38.5 106t-90.5 45h-41q-53 0 -92 -45q-37 -43 -37 -106v-320zM502 1454l219 348h201l-220 -348h-200z" />
<glyph unicode="&#xc2;" d="M123 0v983q0 137 96 234q94 94 232 94h286q137 0 232 -94q96 -96 96 -234v-983h-322v471h-299v-471h-321zM287 1475l221 348h176l217 -348h-203l-102 165l-107 -165h-202zM444 655h299v320q0 61 -38.5 106t-90.5 45h-41q-53 0 -92 -45q-37 -43 -37 -106v-320z" />
<glyph unicode="&#xc3;" d="M123 0v983q0 137 96 234q94 94 232 94h286q137 0 232 -94q96 -96 96 -234v-983h-322v471h-299v-471h-321zM266 1614v172h240q72 0 121 -49t49 -123v-6h246v-170h-246q-72 0 -121 49t-49 121v6h-240zM444 655h299v320q0 61 -38.5 106t-90.5 45h-41q-53 0 -92 -45 q-37 -43 -37 -106v-320z" />
<glyph unicode="&#xc4;" d="M123 0v983q0 137 96 234q94 94 232 94h286q137 0 232 -94q96 -96 96 -234v-983h-322v471h-299v-471h-321zM348 1468v170h170v-170h-170zM444 655h299v320q0 61 -38.5 106t-90.5 45h-41q-53 0 -92 -45q-37 -43 -37 -106v-320zM670 1468v170h170v-170h-170z" />
<glyph unicode="&#xc5;" d="M123 0v983q0 109 63 193q68 90 164 118q-2 2 -2 17v164q0 72 47 116q51 47 117 47h164q68 0 117 -49q47 -47 47 -114v-164v-17q104 -35 164 -118q61 -86 61 -193v-983h-322v471h-299v-471h-321zM444 655h299v320q0 61 -38.5 106t-90.5 45h-41q-53 0 -92 -45 q-37 -43 -37 -106v-320zM510 1309h168v166h-168v-166z" />
<glyph unicode="&#xc6;" horiz-adv-x="1615" d="M123 0v983q0 137 96 234q94 94 232 94h1060v-185h-432v-348h437v-184h-437v-266q0 -61 37 -102.5t92 -41.5h303v-184h-426q-135 0 -231 96.5t-96 231.5v143h-314v-471h-321zM444 655h314v471h-185q-53 0 -92 -45q-37 -43 -37 -106v-320z" />
<glyph unicode="&#xc7;" horiz-adv-x="1144" d="M102 492v491q0 137 97 234q94 94 231 94h377q98 0 167.5 -70t69.5 -168v-172h-321v225h-170q-51 0 -90 -45t-39 -106v-483q0 -127 86 -217.5t207 -90.5h327v-184h-256v-246q0 -68 -49 -116q-47 -47 -114 -48h-164v170h157v240h-24q-203 0 -348 145q-144 144 -144 347z " />
<glyph unicode="&#xc8;" horiz-adv-x="1001" d="M123 164v1147h778v-185h-457v-348h457v-184h-457v-410h457v-184h-614q-70 0 -117 47t-47 117zM246 1802h200l220 -348h-201z" />
<glyph unicode="&#xc9;" horiz-adv-x="1001" d="M123 164v1147h778v-185h-457v-348h457v-184h-457v-410h457v-184h-614q-70 0 -117 47t-47 117zM420 1454l219 348h201l-219 -348h-201z" />
<glyph unicode="&#xca;" horiz-adv-x="1001" d="M123 164v1147h778v-185h-457v-348h457v-184h-457v-410h457v-184h-614q-70 0 -117 47t-47 117zM225 1475l221 348h177l217 -348h-203l-102 165l-107 -165h-203z" />
<glyph unicode="&#xcb;" horiz-adv-x="1001" d="M123 164v1147h778v-185h-457v-348h457v-184h-457v-410h457v-184h-614q-70 0 -117 47t-47 117zM287 1468v170h170v-170h-170zM608 1468v170h170v-170h-170z" />
<glyph unicode="&#xcc;" horiz-adv-x="565" d="M0 1802h201l219 -348h-201zM123 0v1311h321v-1311h-321z" />
<glyph unicode="&#xcd;" horiz-adv-x="565" d="M123 0v1311h321v-1311h-321zM147 1454l220 348h200l-219 -348h-201z" />
<glyph unicode="&#xce;" horiz-adv-x="565" d="M39 1468v170h170v-170h-170zM123 0v1311h321v-1311h-321zM360 1468v170h170v-170h-170z" />
<glyph unicode="&#xcf;" horiz-adv-x="565" d="M-23 1475l222 348h176l217 -348h-203l-102 165l-107 -165h-203zM123 0v1311h321v-1311h-321z" />
<glyph unicode="&#xd0;" horiz-adv-x="1247" d="M0 573v185h164v553h491q205 0 348.5 -143.5t143.5 -348.5v-327q0 -205 -143.5 -348.5t-348.5 -143.5h-491v573h-164zM485 184h47q121 0 207 90.5t86 217.5v327q0 127 -86 217t-207 90h-47v-368h164v-185h-164v-389z" />
<glyph unicode="&#xd1;" horiz-adv-x="1308" d="M123 0v1311h235q98 0 142 -78l366 -731v809h322v-1311h-236q-100 0 -141 78l-367 737v-815h-321zM328 1614v172h239q72 0 121 -49t49 -123v-6h246v-170h-246q-72 0 -121 49t-49 121v6h-239z" />
<glyph unicode="&#xd2;" horiz-adv-x="1206" d="M102 328v655q0 135 96.5 231.5t231.5 96.5h348q135 0 231.5 -96.5t96.5 -231.5v-655q0 -135 -96.5 -231.5t-231.5 -96.5h-348q-137 0 -231 94q-97 97 -97 234zM279 1802h200l219 -348h-200zM424 334q0 -61 39 -107q37 -43 90 -43h102q55 0 93 43q39 45 38 107v641 q0 66 -38 106q-41 45 -93 45h-102q-51 0 -90 -45t-39 -106v-641z" />
<glyph unicode="&#xd3;" horiz-adv-x="1206" d="M102 328v655q0 135 96.5 231.5t231.5 96.5h348q135 0 231.5 -96.5t96.5 -231.5v-655q0 -135 -96.5 -231.5t-231.5 -96.5h-348q-137 0 -231 94q-97 97 -97 234zM424 334q0 -61 39 -107q37 -43 90 -43h102q55 0 93 43q39 45 38 107v641q0 66 -38 106q-41 45 -93 45h-102 q-51 0 -90 -45t-39 -106v-641zM522 1454l219 348h201l-219 -348h-201z" />
<glyph unicode="&#xd4;" horiz-adv-x="1206" d="M102 328v655q0 135 96.5 231.5t231.5 96.5h348q135 0 231.5 -96.5t96.5 -231.5v-655q0 -135 -96.5 -231.5t-231.5 -96.5h-348q-137 0 -231 94q-97 97 -97 234zM297 1475l221 348h176l217 -348h-202l-103 165l-106 -165h-203zM424 334q0 -61 39 -107q37 -43 90 -43h102 q55 0 93 43q39 45 38 107v641q0 66 -38 106q-41 45 -93 45h-102q-51 0 -90 -45t-39 -106v-641z" />
<glyph unicode="&#xd5;" horiz-adv-x="1206" d="M102 328v655q0 135 96.5 231.5t231.5 96.5h348q135 0 231.5 -96.5t96.5 -231.5v-655q0 -135 -96.5 -231.5t-231.5 -96.5h-348q-137 0 -231 94q-97 97 -97 234zM276 1614v172h240q72 0 121 -49t49 -123v-6h246v-170h-246q-72 0 -121 49t-49 121v6h-240zM424 334 q0 -61 39 -107q37 -43 90 -43h102q55 0 93 43q39 45 38 107v641q0 66 -38 106q-41 45 -93 45h-102q-51 0 -90 -45t-39 -106v-641z" />
<glyph unicode="&#xd6;" horiz-adv-x="1206" d="M102 328v655q0 135 96.5 231.5t231.5 96.5h348q135 0 231.5 -96.5t96.5 -231.5v-655q0 -135 -96.5 -231.5t-231.5 -96.5h-348q-137 0 -231 94q-97 97 -97 234zM358 1468v170h170v-170h-170zM424 334q0 -61 39 -107q37 -43 90 -43h102q55 0 93 43q39 45 38 107v641 q0 66 -38 106q-41 45 -93 45h-102q-51 0 -90 -45t-39 -106v-641zM680 1468v170h170v-170h-170z" />
<glyph unicode="&#xd7;" horiz-adv-x="1024" d="M76 313l254 252l-254 254l180 180l254 -251l254 253l182 -182l-254 -254l254 -254l-182 -180l-252 252l-254 -252z" />
<glyph unicode="&#xd8;" horiz-adv-x="1206" d="M102 47l62 90q-61 83 -62 191v655q0 135 96.5 231.5t231.5 96.5h348q76 0 144 -33l49 74l135 -90l-59 -91q59 -88 59 -188v-655q0 -135 -96.5 -231.5t-231.5 -96.5h-348q-77 0 -141 31l-51 -74zM424 530l346 519q-37 78 -115 77h-102q-51 0 -90 -45t-39 -106v-445z M440 260q33 -76 113 -76h102q55 0 93 43q39 45 38 107v448z" />
<glyph unicode="&#xd9;" d="M123 328v983h321v-977q0 -63 37 -106.5t92 -43.5h41q53 0 91 43q39 45 38 107v977h322v-983q0 -135 -96.5 -231.5t-231.5 -96.5h-286q-137 0 -232 94q-96 97 -96 234zM299 1802h201l219 -348h-201z" />
<glyph unicode="&#xda;" d="M123 328v983h321v-977q0 -63 37 -106.5t92 -43.5h41q53 0 91 43q39 45 38 107v977h322v-983q0 -135 -96.5 -231.5t-231.5 -96.5h-286q-137 0 -232 94q-96 97 -96 234zM502 1454l219 348h201l-220 -348h-200z" />
<glyph unicode="&#xdb;" d="M123 328v983h321v-977q0 -63 37 -106.5t92 -43.5h41q53 0 91 43q39 45 38 107v977h322v-983q0 -135 -96.5 -231.5t-231.5 -96.5h-286q-137 0 -232 94q-96 97 -96 234zM287 1475l221 348h176l217 -348h-203l-102 165l-107 -165h-202z" />
<glyph unicode="&#xdc;" d="M123 328v983h321v-977q0 -63 37 -106.5t92 -43.5h41q53 0 91 43q39 45 38 107v977h322v-983q0 -135 -96.5 -231.5t-231.5 -96.5h-286q-137 0 -232 94q-96 97 -96 234zM348 1468v170h170v-170h-170zM670 1468v170h170v-170h-170z" />
<glyph unicode="&#xdd;" horiz-adv-x="1124" d="M82 840v471h321v-465q0 -63 37 -106.5t92 -43.5h62q53 0 90 43q39 45 39 107v465h321v-471q0 -133 -94 -228q-98 -98 -227 -100v-512h-322v512q-133 4 -227 100q-92 96 -92 228zM453 1454l219 348h200l-219 -348h-200z" />
<glyph unicode="&#xde;" horiz-adv-x="1124" d="M123 0v1311h321v-248h273q135 0 231 -96.5t96 -231.5v-162q0 -135 -96 -231t-231 -96h-273v-246h-321zM444 430h150q51 0 92 45q39 41 39 107v147q0 61 -39 107q-37 43 -92 43h-150v-449z" />
<glyph unicode="&#xdf;" horiz-adv-x="1247" d="M20 635v184h162v254q0 98 70 168t168 70h346q98 0 168 -70t70 -168v-213q80 -45 120 -119q43 -78 43 -166v-247q0 -135 -96 -231.5t-231 -96.5h-178v184h36q55 0 113 43q59 43 59 101v247q0 59 -36 103q-35 41 -86 41h-41v407h-228v-1126h-297v635h-162z" />
<glyph unicode="&#xe0;" horiz-adv-x="1083" d="M102 164v266q0 70 47.5 117t116.5 47h400v205h-519v184h652q70 0 117 -47t47 -117v-819h-697q-70 0 -117 47t-47 117zM266 1495h201l219 -348h-201zM399 184h267v226h-267v-226z" />
<glyph unicode="&#xe1;" horiz-adv-x="1083" d="M102 164v266q0 70 47.5 117t116.5 47h400v205h-519v184h652q70 0 117 -47t47 -117v-819h-697q-70 0 -117 47t-47 117zM379 1147l219 348h201l-219 -348h-201zM399 184h267v226h-267v-226z" />
<glyph unicode="&#xe2;" horiz-adv-x="1083" d="M102 164v266q0 70 47.5 117t116.5 47h400v205h-519v184h652q70 0 117 -47t47 -117v-819h-697q-70 0 -117 47t-47 117zM225 1147l221 348h177l217 -348h-203l-102 166l-107 -166h-203zM399 184h267v226h-267v-226z" />
<glyph unicode="&#xe3;" horiz-adv-x="1083" d="M102 164v266q0 70 47.5 117t116.5 47h400v205h-519v184h652q70 0 117 -47t47 -117v-819h-697q-70 0 -117 47t-47 117zM184 1323v172h240q72 0 121 -49t49 -123v-6h246v-170h-246q-72 0 -121 49t-49 121v6h-240zM399 184h267v226h-267v-226z" />
<glyph unicode="&#xe4;" horiz-adv-x="1083" d="M102 164v266q0 70 47.5 117t116.5 47h400v205h-519v184h652q70 0 117 -47t47 -117v-819h-697q-70 0 -117 47t-47 117zM287 1141v170h170v-170h-170zM399 184h267v226h-267v-226zM608 1141v170h170v-170h-170z" />
<glyph unicode="&#xe5;" horiz-adv-x="1083" d="M102 164v266q0 70 47.5 117t116.5 47h400v205h-519v184h652q70 0 117 -47t47 -117v-819h-697q-70 0 -117 47t-47 117zM307 1311v164q0 72 47 116q51 47 117 47h164q68 0 117 -49q47 -47 47 -114v-164q0 -68 -49 -117q-47 -47 -115 -47h-164q-70 0 -117 47t-47 117z M399 184h267v226h-267v-226zM469 1309h168v166h-168v-166z" />
<glyph unicode="&#xe6;" horiz-adv-x="1656" d="M102 164v266q0 70 47.5 117t116.5 47h404v61q0 59 -35 105q-34 43 -92 43h-398v180h494q94 0 178 -53q88 53 180 53h232q137 0 231 -94q96 -96 96 -234v-245h-589v-84q0 -59 36.5 -100.5t86.5 -41.5h413v-184h-506q-98 0 -180 51q-78 -51 -178 -51h-373q-70 0 -117 47 t-47 117zM399 184h148q53 0 88 41t35 103v82h-271v-226zM967 594h293v61q0 61 -35 102.5t-88 41.5h-47q-49 0 -86 -41t-37 -103v-61z" />
<glyph unicode="&#xe7;" horiz-adv-x="1024" d="M102 328v327q0 137 95 232q96 96 233 96h328q70 0 117 -47t47 -117v-164h-297v144h-103q-51 0 -88 -41q-35 -37 -35 -103v-327q0 -61 35 -102.5t88 -41.5h387v-184h-229v-246q0 -70 -47 -117t-117 -47h-164v170h158v240h-80q-139 0 -233.5 94.5t-94.5 233.5z" />
<glyph unicode="&#xe8;" horiz-adv-x="1103" d="M102 328v327q0 137 95 232q96 96 233 96h246q139 0 233.5 -94t94.5 -234v-245h-605v-82q0 -61 35 -102.5t88 -41.5h428v-184h-520q-139 0 -233.5 94.5t-94.5 233.5zM276 1495h201l219 -348h-200zM399 594h308v61q0 61 -35 102.5t-88 41.5h-62q-51 0 -88 -41 q-35 -37 -35 -103v-61z" />
<glyph unicode="&#xe9;" horiz-adv-x="1103" d="M102 328v327q0 137 95 232q96 96 233 96h246q139 0 233.5 -94t94.5 -234v-245h-605v-82q0 -61 35 -102.5t88 -41.5h428v-184h-520q-139 0 -233.5 94.5t-94.5 233.5zM399 594h308v61q0 61 -35 102.5t-88 41.5h-62q-51 0 -88 -41q-35 -37 -35 -103v-61zM440 1147l219 348 h201l-219 -348h-201z" />
<glyph unicode="&#xea;" horiz-adv-x="1103" d="M102 328v327q0 137 95 232q96 96 233 96h246q139 0 233.5 -94t94.5 -234v-245h-605v-82q0 -61 35 -102.5t88 -41.5h428v-184h-520q-139 0 -233.5 94.5t-94.5 233.5zM256 1147l221 348h176l217 -348h-202l-103 166l-106 -166h-203zM399 594h308v61q0 61 -35 102.5 t-88 41.5h-62q-51 0 -88 -41q-35 -37 -35 -103v-61z" />
<glyph unicode="&#xeb;" horiz-adv-x="1103" d="M102 328v327q0 137 95 232q96 96 233 96h246q139 0 233.5 -94t94.5 -234v-245h-605v-82q0 -61 35 -102.5t88 -41.5h428v-184h-520q-139 0 -233.5 94.5t-94.5 233.5zM322 1141v170h170v-170h-170zM399 594h308v61q0 61 -35 102.5t-88 41.5h-62q-51 0 -88 -41 q-35 -37 -35 -103v-61zM643 1141v170h170v-170h-170z" />
<glyph unicode="&#xec;" horiz-adv-x="540" d="M0 1495h201l219 -348h-201zM123 0v983h297v-983h-297z" />
<glyph unicode="&#xed;" horiz-adv-x="540" d="M123 0v983h297v-983h-297zM123 1147l219 348h201l-219 -348h-201z" />
<glyph unicode="&#xee;" horiz-adv-x="540" d="M-37 1147l221 348h176l218 -348h-203l-103 166l-106 -166h-203zM123 0v983h297v-983h-297z" />
<glyph unicode="&#xef;" horiz-adv-x="540" d="M27 1141v170h170v-170h-170zM123 0v983h297v-983h-297zM348 1141v170h170v-170h-170z" />
<glyph unicode="&#xf0;" horiz-adv-x="1144" d="M102 328v327q0 137 95 232q96 96 233 96h256v143h-160v185h160v184h297v-184h164v-185h-164v-798q0 -137 -94 -232q-96 -96 -234 -96h-225q-139 0 -233.5 94.5t-94.5 233.5zM399 328q0 -61 35 -102.5t88 -41.5h41q51 0 86 41q37 43 37 103v471h-164q-51 0 -88 -41 q-35 -37 -35 -103v-327z" />
<glyph unicode="&#xf1;" horiz-adv-x="1124" d="M123 0v983h553q139 0 233.5 -94t94.5 -234v-655h-297v655q0 61 -35 102.5t-88 41.5h-164v-799h-297zM205 1323v172h239q72 0 121 -49t49 -123v-6h246v-170h-246q-72 0 -121 49t-49 121v6h-239z" />
<glyph unicode="&#xf2;" horiz-adv-x="1103" d="M102 328v327q0 137 95 232q96 96 233 96h246q139 0 233.5 -94t94.5 -234v-327q0 -137 -95 -232q-96 -96 -233 -96h-246q-139 0 -233.5 94.5t-94.5 233.5zM246 1495h200l220 -348h-201zM399 328q0 -61 35 -102.5t88 -41.5h62q53 0 88 41t35 103v327q0 61 -35 102.5 t-88 41.5h-62q-51 0 -88 -41q-35 -37 -35 -103v-327z" />
<glyph unicode="&#xf3;" horiz-adv-x="1103" d="M102 328v327q0 137 95 232q96 96 233 96h246q139 0 233.5 -94t94.5 -234v-327q0 -137 -95 -232q-96 -96 -233 -96h-246q-139 0 -233.5 94.5t-94.5 233.5zM399 328q0 -61 35 -102.5t88 -41.5h62q53 0 88 41t35 103v327q0 61 -35 102.5t-88 41.5h-62q-51 0 -88 -41 q-35 -37 -35 -103v-327zM440 1147l219 348h201l-219 -348h-201z" />
<glyph unicode="&#xf4;" horiz-adv-x="1103" d="M102 328v327q0 137 95 232q96 96 233 96h246q139 0 233.5 -94t94.5 -234v-327q0 -137 -95 -232q-96 -96 -233 -96h-246q-139 0 -233.5 94.5t-94.5 233.5zM246 1147l221 348h176l217 -348h-203l-102 166l-106 -166h-203zM399 328q0 -61 35 -102.5t88 -41.5h62q53 0 88 41 t35 103v327q0 61 -35 102.5t-88 41.5h-62q-51 0 -88 -41q-35 -37 -35 -103v-327z" />
<glyph unicode="&#xf5;" horiz-adv-x="1103" d="M102 328v327q0 137 95 232q96 96 233 96h246q139 0 233.5 -94t94.5 -234v-327q0 -137 -95 -232q-96 -96 -233 -96h-246q-139 0 -233.5 94.5t-94.5 233.5zM225 1323v172h240q72 0 121 -49t49 -123v-6h246v-170h-246q-72 0 -121 49t-49 121v6h-240zM225 1323v172h240 q72 0 121 -49t49 -123v-6h246v-170h-246q-72 0 -121 49t-49 121v6h-240zM225 1323v172h240q72 0 121 -49t49 -123v-6h246v-170h-246q-72 0 -121 49t-49 121v6h-240zM399 328q0 -61 35 -102.5t88 -41.5h62q53 0 88 41t35 103v327q0 61 -35 102.5t-88 41.5h-62q-51 0 -88 -41 q-35 -37 -35 -103v-327z" />
<glyph unicode="&#xf6;" horiz-adv-x="1103" d="M102 328v327q0 137 95 232q96 96 233 96h246q139 0 233.5 -94t94.5 -234v-327q0 -137 -95 -232q-96 -96 -233 -96h-246q-139 0 -233.5 94.5t-94.5 233.5zM307 1141v170h170v-170h-170zM399 328q0 -61 35 -102.5t88 -41.5h62q53 0 88 41t35 103v327q0 61 -35 102.5 t-88 41.5h-62q-51 0 -88 -41q-35 -37 -35 -103v-327zM629 1141v170h170v-170h-170z" />
<glyph unicode="&#xf7;" horiz-adv-x="1062" d="M123 444v256h819v-256h-819zM369 61v287h327v-287h-327zM369 797v286h327v-286h-327z" />
<glyph unicode="&#xf8;" horiz-adv-x="1103" d="M102 328v327q0 137 95 232q96 96 233 96h246q70 0 127 -25l53 70l137 -104l-55 -72q66 -90 66 -197v-327q0 -137 -95 -232q-96 -96 -233 -96h-246q-70 0 -127 25l-53 -70l-139 106l55 70q-64 84 -64 197zM399 434l258 336q-35 29 -73 29h-62q-51 0 -88 -41 q-35 -37 -35 -103v-221zM446 213q35 -29 76 -29h62q53 0 88 41t35 103v221z" />
<glyph unicode="&#xf9;" horiz-adv-x="1083" d="M102 328v655h297v-655q0 -61 35 -102.5t88 -41.5h41q49 0 86 41t37 103v655h297v-655q0 -137 -94 -232q-96 -96 -234 -96h-225q-139 0 -233.5 94.5t-94.5 233.5zM225 1495h201l219 -348h-201z" />
<glyph unicode="&#xfa;" horiz-adv-x="1083" d="M102 328v655h297v-655q0 -61 35 -102.5t88 -41.5h41q49 0 86 41t37 103v655h297v-655q0 -137 -94 -232q-96 -96 -234 -96h-225q-139 0 -233.5 94.5t-94.5 233.5zM420 1147l219 348h201l-219 -348h-201z" />
<glyph unicode="&#xfb;" horiz-adv-x="1083" d="M102 328v655h297v-655q0 -61 35 -102.5t88 -41.5h41q49 0 86 41t37 103v655h297v-655q0 -137 -94 -232q-96 -96 -234 -96h-225q-139 0 -233.5 94.5t-94.5 233.5zM233 1147l222 348h176l217 -348h-203l-102 166l-107 -166h-203z" />
<glyph unicode="&#xfc;" horiz-adv-x="1083" d="M102 328v655h297v-655q0 -61 35 -102.5t88 -41.5h41q49 0 86 41t37 103v655h297v-655q0 -137 -94 -232q-96 -96 -234 -96h-225q-139 0 -233.5 94.5t-94.5 233.5zM297 1141v170h170v-170h-170zM618 1141v170h170v-170h-170z" />
<glyph unicode="&#xfd;" horiz-adv-x="1124" d="M123 328v655h297v-655q0 -59 37 -103q35 -41 86 -41h164v799h297v-1229q0 -70 -47.5 -117t-116.5 -47h-256v185h123v225h-256q-137 0 -232 94q-96 97 -96 234zM461 1147l219 348h201l-219 -348h-201z" />
<glyph unicode="&#xfe;" horiz-adv-x="1103" d="M123 -410v1905h297v-512h256q139 0 233.5 -94t94.5 -234v-327q0 -137 -95 -232q-96 -96 -233 -96h-256v-410h-297zM420 184h164q53 0 88 41t35 103v327q0 61 -35 102.5t-88 41.5h-164v-615z" />
<glyph unicode="&#xff;" horiz-adv-x="1124" d="M123 328v655h297v-655q0 -59 37 -103q35 -41 86 -41h164v799h297v-1229q0 -70 -47.5 -117t-116.5 -47h-256v185h123v225h-256q-137 0 -232 94q-96 97 -96 234zM317 1141v170h170v-170h-170zM639 1141v170h170v-170h-170z" />
<glyph unicode="&#x152;" horiz-adv-x="1636" d="M102 328v655q0 135 96.5 231.5t231.5 96.5h1126v-185h-454v-348h442v-184h-442v-260q0 -61 39 -107q37 -43 92 -43h323v-184h-446q-92 0 -168 45q-76 -45 -168 -45h-344q-137 0 -231 94q-97 97 -97 234zM424 334q0 -61 39 -107q37 -43 90 -43h98q55 0 92 43q39 45 39 107 v792h-229q-51 0 -90 -45t-39 -106v-641z" />
<glyph unicode="&#x153;" horiz-adv-x="1687" d="M102 328v327q0 137 95 232q96 96 233 96h246q96 0 180 -53q84 53 178 53h226q139 0 233 -94t94 -234v-245h-583v-82q0 -59 36 -103q35 -41 86 -41h408v-184h-500q-100 0 -178 51q-78 -51 -180 -51h-246q-139 0 -233.5 94.5t-94.5 233.5zM399 328q0 -61 35 -102.5 t88 -41.5h62q53 0 88 41t35 103v327q0 61 -35 102.5t-88 41.5h-62q-51 0 -88 -41q-35 -37 -35 -103v-327zM1004 594h286v61q0 61 -34.5 102.5t-88.5 41.5h-41q-49 0 -85.5 -41t-36.5 -103v-61z" />
<glyph unicode="&#x178;" horiz-adv-x="1124" d="M82 840v471h321v-465q0 -63 37 -106.5t92 -43.5h62q53 0 90 43q39 45 39 107v465h321v-471q0 -133 -94 -228q-98 -98 -227 -100v-512h-322v512q-133 4 -227 100q-92 96 -92 228zM317 1468v170h170v-170h-170zM639 1468v170h170v-170h-170z" />
<glyph unicode="&#x2c6;" horiz-adv-x="817" d="M102 1147l222 348h176l217 -348h-203l-102 166l-107 -166h-203z" />
<glyph unicode="&#x2dc;" horiz-adv-x="817" d="M82 1323v172h240q72 0 121 -49t49 -123v-6h245v-170h-245q-70 0 -119 49q-51 51 -51 121v6h-240z" />
<glyph unicode="&#x2000;" horiz-adv-x="909" />
<glyph unicode="&#x2001;" horiz-adv-x="1822" />
<glyph unicode="&#x2002;" horiz-adv-x="909" />
<glyph unicode="&#x2003;" horiz-adv-x="1822" />
<glyph unicode="&#x2004;" horiz-adv-x="606" />
<glyph unicode="&#x2005;" horiz-adv-x="454" />
<glyph unicode="&#x2006;" horiz-adv-x="301" />
<glyph unicode="&#x2007;" horiz-adv-x="301" />
<glyph unicode="&#x2008;" horiz-adv-x="225" />
<glyph unicode="&#x2009;" horiz-adv-x="362" />
<glyph unicode="&#x200a;" horiz-adv-x="100" />
<glyph unicode="&#x2010;" horiz-adv-x="694" d="M102 471v205h492v-205h-492z" />
<glyph unicode="&#x2011;" horiz-adv-x="694" d="M102 471v205h492v-205h-492z" />
<glyph unicode="&#x2012;" horiz-adv-x="694" d="M102 471v205h492v-205h-492z" />
<glyph unicode="&#x2013;" horiz-adv-x="1103" d="M102 471v205h902v-205h-902z" />
<glyph unicode="&#x2014;" horiz-adv-x="1636" d="M102 471v205h1436v-205h-1436z" />
<glyph unicode="&#x2018;" horiz-adv-x="571" d="M41 1495h287l164 -512h-289z" />
<glyph unicode="&#x2019;" horiz-adv-x="571" d="M82 983l164 512h286l-161 -512h-289z" />
<glyph unicode="&#x201a;" horiz-adv-x="591" d="M0 -410l219 697h305l-217 -697h-307z" />
<glyph unicode="&#x201c;" horiz-adv-x="1042" d="M41 1495h285l163 -512h-286zM514 1495h285l164 -512h-287z" />
<glyph unicode="&#x201d;" horiz-adv-x="1024" d="M82 983l164 512h284l-161 -512h-287zM535 983l163 512h285l-162 -512h-286z" />
<glyph unicode="&#x201e;" horiz-adv-x="1083" d="M0 -410l219 697h305l-217 -697h-307zM471 -410l219 697h305l-217 -697h-307z" />
<glyph unicode="&#x2022;" horiz-adv-x="612" d="M143 492v327h328v-327h-328z" />
<glyph unicode="&#x2026;" horiz-adv-x="1513" d="M143 0v287h328v-287h-328zM600 0v287h328v-287h-328zM1055 0v287h327v-287h-327z" />
<glyph unicode="&#x202f;" horiz-adv-x="362" />
<glyph unicode="&#x2039;" horiz-adv-x="747" d="M0 586l496 495l170 -182l-306 -313l308 -310l-174 -184z" />
<glyph unicode="&#x203a;" horiz-adv-x="749" d="M82 899l174 182l496 -495l-494 -494l-174 184l303 310z" />
<glyph unicode="&#x205f;" horiz-adv-x="454" />
<glyph unicode="&#x20ac;" horiz-adv-x="1124" d="M82 573v185h242v123h-242v184h252q27 106 115 176t202 70h353v-185h-261q-49 0 -85.5 -41t-36.5 -102v-74h383v-184h-383v-70q0 -61 36.5 -102t85.5 -41h261v-184h-353q-115 0 -202 69q-90 72 -115 176h-252z" />
<glyph unicode="&#x2122;" horiz-adv-x="1538" d="M61 1182v129h459v-129h-133v-445h-192v445h-134zM618 737v574h623q90 0 153.5 -63.5t63.5 -153.5v-357h-194v391q0 74 -66 74h-63v-465h-193v465h-129v-465h-195z" />
<glyph unicode="&#xe000;" horiz-adv-x="985" d="M0 985h985v-985h-985v985z" />
<glyph unicode="&#xfb01;" horiz-adv-x="1329" d="M41 799v184h164v348q0 68 49 117q47 47 115 47h839v-184h-706v-328h276v-184h-276v-799h-297v799h-164zM907 0v983h297v-983h-297z" />
<glyph unicode="&#xfb02;" horiz-adv-x="1370" d="M41 799v184h164v348q0 68 49 117q47 47 115 47h409v-184h-276v-328h276v-184h-276v-799h-297v799h-164zM952 0v1495h297v-1495h-297z" />
<glyph unicode="&#xfb03;" horiz-adv-x="2066" d="M41 799v184h164v348q0 68 49 117q47 47 115 47h409v-184h-276v-328h440v348q0 70 47 117t117 47h840v-184h-707v-328h277v-184h-277v-799h-297v799h-440v-799h-297v799h-164zM1645 0v983h297v-983h-297z" />
<glyph unicode="&#xfb04;" horiz-adv-x="2086" d="M41 799v184h164v348q0 68 49 117q47 47 115 47h409v-184h-276v-328h440v348q0 70 47 117t117 47h410v-184h-277v-328h277v-184h-277v-799h-297v799h-440v-799h-297v799h-164zM1669 0v1495h297v-1495h-297z" />
<glyph horiz-adv-x="448" />
</font>
</defs>
</svg>
